<svg width="18" height="21" viewBox="0 0 18 21" fill="none" xmlns="http://www.w3.org/2000/svg">
<path d="M9 21C10.4191 21 11.5702 19.8249 11.5702 18.375H6.42978C6.42978 19.8249 7.5809 21 9 21ZM17.654 14.8596C16.8778 14.0081 15.4253 12.7271 15.4253 8.53125C15.4253 5.34434 13.2364 2.79316 10.2849 2.16727V1.3125C10.2849 0.587754 9.70955 0 9 0C8.29045 0 7.71509 0.587754 7.71509 1.3125V2.16727C4.76358 2.79316 2.57466 5.34434 2.57466 8.53125C2.57466 12.7271 1.12221 14.0081 0.345964 14.8596C0.104894 15.1241 -0.00198114 15.4403 2.77789e-05 15.75C0.00444741 16.4227 0.521544 17.0625 1.28976 17.0625H16.7102C17.4785 17.0625 17.996 16.4227 18 15.75C18.002 15.4403 17.8951 15.1237 17.654 14.8596Z" fill="#C4C4C4"/>
</svg>
