<svg width="17" height="16" viewBox="0 0 17 16" fill="none" xmlns="http://www.w3.org/2000/svg">
<path d="M8.5 0C3.80508 0 0 3.325 0 7.42857C0 9.2 0.710547 10.8214 1.89258 12.0964C1.47754 13.8964 0.0896484 15.5 0.0730469 15.5179C0 15.6 -0.0199219 15.7214 0.0232422 15.8286C0.0664062 15.9357 0.159375 16 0.265625 16C2.46699 16 4.11719 14.8643 4.93398 14.1643C6.01973 14.6036 7.225 14.8571 8.5 14.8571C13.1949 14.8571 17 11.5321 17 7.42857C17 3.325 13.1949 0 8.5 0ZM4.25 8.57143C3.6623 8.57143 3.1875 8.06071 3.1875 7.42857C3.1875 6.79643 3.6623 6.28571 4.25 6.28571C4.8377 6.28571 5.3125 6.79643 5.3125 7.42857C5.3125 8.06071 4.8377 8.57143 4.25 8.57143ZM8.5 8.57143C7.9123 8.57143 7.4375 8.06071 7.4375 7.42857C7.4375 6.79643 7.9123 6.28571 8.5 6.28571C9.0877 6.28571 9.5625 6.79643 9.5625 7.42857C9.5625 8.06071 9.0877 8.57143 8.5 8.57143ZM12.75 8.57143C12.1623 8.57143 11.6875 8.06071 11.6875 7.42857C11.6875 6.79643 12.1623 6.28571 12.75 6.28571C13.3377 6.28571 13.8125 6.79643 13.8125 7.42857C13.8125 8.06071 13.3377 8.57143 12.75 8.57143Z" fill="#E4E1D6"/>
</svg>
