<svg width="15" height="15" viewBox="0 0 15 15" fill="none" xmlns="http://www.w3.org/2000/svg">
<path d="M15 7.5C15 11.6421 11.6421 15 7.5 15C3.35785 15 0 11.6421 0 7.5C0 3.35785 3.35785 0 7.5 0C11.6421 0 15 3.35785 15 7.5ZM6.63248 11.4712L12.197 5.90667C12.3859 5.71772 12.3859 5.41134 12.197 5.22239L11.5127 4.5381C11.3238 4.34912 11.0174 4.34912 10.8284 4.5381L6.29032 9.07615L4.1716 6.95743C3.98265 6.76848 3.67627 6.76848 3.48729 6.95743L2.803 7.64171C2.61405 7.83067 2.61405 8.13705 2.803 8.326L5.94817 11.4712C6.13715 11.6601 6.4435 11.6601 6.63248 11.4712Z" fill="#E4E1D6"/>
</svg>
