<svg width="371" height="87" viewBox="0 0 371 87" fill="none" xmlns="http://www.w3.org/2000/svg">
<path d="M56.328 6.64058L44.7975 69.0116H28.2029C17.5294 69.8522 21.9443 69.8522 17.5294 69.8522C14.6209 69.8522 11.8161 69.0116 9.11531 67.3304C6.41448 65.6493 4.20707 63.2116 2.49308 60.0174C0.831026 56.7671 0 52.9565 0 48.5855C0 43.6541 1.01281 39.171 3.03844 35.1362C5.116 31.1014 7.89474 27.9353 11.3747 25.6377C14.8546 23.3401 18.6202 22.1913 22.6714 22.1913C28.3328 22.1913 32.384 24.0686 34.8252 27.8232L38.7206 6.64058H56.328ZM17.8411 47.6609C17.8411 49.8464 18.3864 51.6116 19.4772 52.9565C20.6198 54.2454 22.178 54.8898 24.1517 54.8898C26.437 54.8898 28.2808 53.9372 29.6832 52.0319C31.1375 50.1266 31.8646 47.5768 31.8646 44.3826C31.8646 42.1971 31.2933 40.4599 30.1506 39.171C29.0599 37.8261 27.5277 37.1536 25.554 37.1536C23.2687 37.1536 21.3989 38.1063 19.9446 40.0116C18.5423 41.9169 17.8411 44.4667 17.8411 47.6609Z" fill="white"/>
<path d="M59.8794 23.0319H77.4088L68.9168 69.0116H51.3873L59.8794 23.0319ZM70.5529 19.3333C67.5404 19.3333 65.1252 18.4928 63.3074 16.8116C61.4895 15.0744 60.5806 12.9169 60.5806 10.3391C60.5806 7.36908 61.6193 4.90338 63.6969 2.94203C65.7745 0.980677 68.4753 0 71.7994 0C74.8119 0 77.227 0.81256 79.0449 2.43768C80.8628 4.00676 81.7717 6.08019 81.7717 8.65797C81.7717 11.8522 80.7329 14.43 78.6554 16.3913C76.6297 18.3527 73.9289 19.3333 70.5529 19.3333Z" fill="white"/>
<path d="M131.688 23.8725L124.91 60.6058C123.248 69.7401 119.95 76.4087 115.015 80.6116C110.133 84.8705 103.719 87 95.772 87C87.0463 87 78.6554 84.7698 73.9188 79.771L82.138 68.3391C83.852 69.7401 85.9555 70.8328 88.4486 71.6174C90.9936 72.458 93.5386 72.8783 96.0837 72.8783C99.3558 72.8783 101.797 72.1498 103.407 70.6928C105.069 69.2357 106.16 67.0502 106.679 64.1362L106.913 62.9594C104.004 65.8734 100.421 67.3304 96.1616 67.3304C92.9413 67.3304 89.9289 66.5459 87.1242 64.9768C84.3194 63.3517 82.0601 61.0261 80.3461 58C78.6321 54.9739 77.7751 51.4715 77.7751 47.4928C77.7751 43.0097 78.7879 38.9188 80.8136 35.2203C82.8392 31.4657 85.592 28.4957 89.0719 26.3101C92.6037 24.1246 96.4732 23.0319 100.68 23.0319C107.38 23.0319 110.416 23.8725 114.112 26.3101L114.938 23.8725H131.688ZM95.5383 46.5681C95.5383 48.3053 96.0837 49.7343 97.1744 50.8551C98.317 51.9198 99.8492 52.4522 101.771 52.4522C104.056 52.4522 105.874 51.6676 107.225 50.0985C108.627 48.5295 109.328 46.456 109.328 43.8783C109.328 42.1411 108.783 40.7401 107.692 39.6754C106.601 38.5546 105.095 37.9942 103.173 37.9942C100.888 37.9942 99.0442 38.7787 97.6418 40.3478C96.2395 41.9169 95.5383 43.9903 95.5383 46.5681Z" fill="white"/>
<path d="M245.46 23.0319H262.989L254.497 69.0116H236.968L245.46 23.0319ZM256.133 19.3333C253.121 19.3333 250.706 18.4928 248.888 16.8116C247.07 15.0744 246.161 12.9169 246.161 10.3391C246.161 7.36908 247.2 4.90338 249.277 2.94203C251.355 0.980677 254.056 0 257.38 0C260.392 0 262.808 0.81256 264.625 2.43768C266.443 4.00676 267.352 6.08019 267.352 8.65797C267.352 11.8522 266.313 14.43 264.236 16.3913C262.21 18.3527 259.509 19.3333 256.133 19.3333Z" fill="white"/>
<path d="M297.936 22.1913C302.558 22.1913 306.246 23.5362 308.999 26.2261C311.803 28.9159 313.206 32.7826 313.206 37.8261C313.206 39.7314 313.024 41.6647 312.66 43.6261L307.986 69.0116H290.379L294.663 45.8956C294.871 44.5507 294.975 43.6261 294.975 43.1217C294.975 39.8155 293.495 38.1623 290.534 38.1623C286.379 38.1623 283.756 41.0763 282.666 46.9043L278.536 69.0116H260.929L269.421 23.0319H286.016L285.159 27.6551C286.977 25.8058 288.976 24.4328 291.158 23.5362C293.391 22.6396 295.65 22.1913 297.936 22.1913Z" fill="white"/>
<path d="M185.721 23.8725L178.943 60.6058C177.281 69.7401 173.983 76.4087 169.049 80.6116C164.166 84.8705 157.752 87 149.805 87C141.079 87 132.688 84.7697 127.952 79.771L136.171 68.3391C137.885 69.7401 139.989 70.8328 142.482 71.6174C145.027 72.458 147.572 72.8782 150.117 72.8782C153.389 72.8782 155.83 72.1497 157.44 70.6927C159.102 69.2357 160.193 67.0502 160.712 64.1362L160.946 62.9594C158.037 65.8734 154.454 67.3304 150.195 67.3304C146.974 67.3304 143.962 66.5459 141.157 64.9768C138.353 63.3517 136.093 61.0261 134.379 58C132.665 54.9739 131.808 51.4715 131.808 47.4927C131.808 43.0097 132.821 38.9188 134.847 35.2203C136.872 31.4657 139.625 28.4956 143.105 26.3101C146.637 24.1246 150.506 23.0319 154.713 23.0319C161.413 23.0319 164.449 23.8725 168.145 26.3101L168.971 23.8725H185.721ZM149.571 46.5681C149.571 48.3053 150.117 49.7343 151.207 50.8551C152.35 51.9198 153.882 52.4522 155.804 52.4522C158.089 52.4522 159.907 51.6676 161.258 50.0985C162.66 48.5295 163.361 46.456 163.361 43.8782C163.361 42.1411 162.816 40.7401 161.725 39.6753C160.634 38.5546 159.128 37.9942 157.206 37.9942C154.921 37.9942 153.077 38.7787 151.675 40.3478C150.273 41.9169 149.571 43.9903 149.571 46.5681Z" fill="white"/>
<path d="M239.332 23.8725L232.554 60.6058C230.892 69.7401 227.594 76.4087 222.66 80.6116C217.777 84.8705 211.363 87 203.416 87C194.691 87 186.3 84.7697 181.563 79.771L189.782 68.3391C191.496 69.7401 193.6 70.8328 196.093 71.6174C198.638 72.458 201.183 72.8782 203.728 72.8782C207 72.8782 209.441 72.1497 211.051 70.6927C212.713 69.2357 213.804 67.0502 214.323 64.1362L214.557 62.9594C211.649 65.8734 208.065 67.3304 203.806 67.3304C200.586 67.3304 197.573 66.5459 194.768 64.9768C191.964 63.3517 189.704 61.0261 187.99 58C186.276 54.9739 185.419 51.4715 185.419 47.4927C185.419 43.0097 186.432 38.9188 188.458 35.2203C190.483 31.4657 193.236 28.4956 196.716 26.3101C200.248 24.1246 204.117 23.0319 208.325 23.0319C215.025 23.0319 218.06 23.8725 221.756 26.3101L222.582 23.8725H239.332ZM203.183 46.5681C203.183 48.3053 203.728 49.7343 204.819 50.8551C205.961 51.9198 207.493 52.4522 209.415 52.4522C211.701 52.4522 213.518 51.6676 214.869 50.0985C216.271 48.5295 216.972 46.456 216.972 43.8782C216.972 42.1411 216.427 40.7401 215.336 39.6753C214.246 38.5546 212.739 37.9942 210.818 37.9942C208.532 37.9942 206.688 38.7787 205.286 40.3478C203.884 41.9169 203.183 43.9903 203.183 46.5681Z" fill="white"/>
<path d="M371 23.8725L364.222 60.6058C362.56 69.7401 359.262 76.4087 354.328 80.6116C349.445 84.8705 343.031 87 335.084 87C326.358 87 317.967 84.7697 313.231 79.771L321.45 68.3391C323.164 69.7401 325.268 70.8328 327.761 71.6174C330.306 72.458 332.851 72.8782 335.396 72.8782C338.668 72.8782 341.109 72.1497 342.719 70.6927C344.381 69.2357 345.472 67.0502 345.991 64.1362L346.225 62.9594C343.316 65.8734 339.733 67.3304 335.474 67.3304C332.253 67.3304 329.241 66.5459 326.436 64.9768C323.632 63.3517 321.372 61.0261 319.658 58C317.944 54.9739 317.087 51.4715 317.087 47.4927C317.087 43.0097 318.1 38.9188 320.126 35.2203C322.151 31.4657 324.904 28.4956 328.384 26.3101C331.916 24.1246 335.785 23.0319 339.992 23.0319C346.693 23.0319 349.728 23.8725 353.424 26.3101L354.25 23.8725H371ZM334.85 46.5681C334.85 48.3053 335.396 49.7343 336.486 50.8551C337.629 51.9198 339.161 52.4522 341.083 52.4522C343.368 52.4522 345.186 51.6676 346.537 50.0985C347.939 48.5295 348.64 46.456 348.64 43.8782C348.64 42.1411 348.095 40.7401 347.004 39.6753C345.913 38.5546 344.407 37.9942 342.485 37.9942C340.2 37.9942 338.356 38.7787 336.954 40.3478C335.552 41.9169 334.85 43.9903 334.85 46.5681Z" fill="white"/>
</svg>
