<svg width="25" height="25" viewBox="0 0 25 25" fill="none" xmlns="http://www.w3.org/2000/svg">
<rect width="25" height="25" rx="4" fill="#343434"/>
<path d="M13.748 7.99693L17.0002 11.2499C17.1372 11.387 17.1372 11.6106 17.0002 11.7476L13.0629 15.6858L9.12567 19.624L5.77972 19.9955C5.33264 20.046 4.95405 19.6673 5.00453 19.2201L5.3759 15.8733L13.2504 7.99693C13.3874 7.85989 13.611 7.85989 13.748 7.99693ZM19.589 7.17106L17.8295 5.41113C17.2814 4.86296 16.3908 4.86296 15.8392 5.41113L14.5628 6.6878C14.4258 6.82485 14.4258 7.04844 14.5628 7.18549L17.815 10.4385C17.9521 10.5755 18.1756 10.5755 18.3126 10.4385L19.589 9.1618C20.137 8.61002 20.137 7.71924 19.589 7.17106Z" fill="white"/>
</svg>
