<svg width="16" height="15" viewBox="0 0 16 15" fill="none" xmlns="http://www.w3.org/2000/svg">
<path d="M7.80395 0C3.66383 0 0.303955 3.35988 0.303955 7.5C0.303955 11.6401 3.66383 15 7.80395 15C11.9441 15 15.304 11.6401 15.304 7.5C15.304 3.35988 11.9441 0 7.80395 0ZM11.2697 6.84677L7.85234 11.4647L4.44408 6.84677C4.18097 6.48689 3.86645 5.32258 4.85537 4.66935C5.70516 4.12198 6.50658 4.54234 6.92694 5.02923C7.40779 5.57056 8.33621 5.54032 8.79287 5.02923C9.21323 4.54234 10.0146 4.12198 10.8523 4.66935C11.8473 5.32258 11.5358 6.48387 11.2697 6.84677V6.84677Z" fill="#E4E1D6"/>
</svg>
