<svg width="22" height="23" viewBox="0 0 22 23" fill="none" xmlns="http://www.w3.org/2000/svg">
<path fill-rule="evenodd" clip-rule="evenodd" d="M8.51613 14.8983C11.4241 14.8983 14.0323 12.3767 14.0323 8.94915C14.0323 5.52158 11.4241 3 8.51613 3C5.60813 3 3 5.52158 3 8.94915C3 12.3767 5.60813 14.8983 8.51613 14.8983ZM8.51613 17.8983C13.2195 17.8983 17.0323 13.8916 17.0323 8.94915C17.0323 4.00667 13.2195 0 8.51613 0C3.8128 0 0 4.00667 0 8.94915C0 13.8916 3.8128 17.8983 8.51613 17.8983Z" fill="#C4C4C4"/>
<path fill-rule="evenodd" clip-rule="evenodd" d="M19.0102 22.4917L11.9134 15.034L14.0866 12.966L21.1834 20.4236L19.0102 22.4917Z" fill="#C4C4C4"/>
</svg>
