<?xml version="1.0" encoding="utf-8"?>
<!-- Generator: Adobe Illustrator 23.0.1, SVG Export Plug-In . SVG Version: 6.00 Build 0)  -->
<svg version="1.1" id="레이어_1" xmlns="http://www.w3.org/2000/svg" xmlns:xlink="http://www.w3.org/1999/xlink" x="0px"
	 y="0px" viewBox="0 0 81 81" style="enable-background:new 0 0 81 81;" xml:space="preserve">
<style type="text/css">
	.st0{fill:none;stroke:#A9A59F;stroke-width:6;stroke-miterlimit:10;}
	.st1{fill:#CEC4B3;}
	.st2{fill:#FEFEFE;}
</style>
<path class="st0" d="M23.32,1"/>
<g>
	<path class="st1" d="M17.99,77.92c-12.9,0.01-15.02-2.49-15.45-14.2c-0.49-13.34,7.73-21.36,16.76-28.97
		c2.98-2.51,5.52-0.32,7.8,1.91c5.93,5.78,5.96,5.75,11.86-0.13c1.87-1.87,3.63-3.89,5.66-5.57c3.51-2.9,5.26-5.78,3.81-10.85
		c-1.52-5.34,5.17-14.93,10.55-16.93c2.19-0.81,3.81,0.18,5.24,1.57c4.04,3.94,8.03,7.94,12.01,11.95c2.46,2.47,2.19,4.84-0.12,7.38
		c-5.18,5.69-10.55,10.64-19.2,7.57c-1.76-0.62-3.01,0.41-4.18,1.58c-3.98,4-7.92,8.06-12.03,11.93c-2.03,1.92-1.81,3.19,0.03,5.18
		c7.99,8.67,7.71,8.53-0.54,17.29C33.74,74.5,26.27,78.27,17.99,77.92z M62.18,25.12c2.81-0.58,5.75-1.43,6.28-5.03
		c0.25-1.72-6.51-8.21-8.04-7.76c-3.32,0.97-4.76,3.71-4.65,6.88C55.88,22.9,58.19,24.88,62.18,25.12z"/>
	<g>
		<path class="st2" d="M62.18,25.12c-3.98-0.24-6.29-2.22-6.41-5.9c-0.1-3.17,1.33-5.91,4.65-6.88c1.54-0.45,8.3,6.03,8.04,7.76
			C67.93,23.7,64.98,24.55,62.18,25.12z"/>
	</g>
</g>
</svg>
