<?xml version="1.0" encoding="utf-8"?>
<!-- Generator: Adobe Illustrator 23.0.1, SVG Export Plug-In . SVG Version: 6.00 Build 0)  -->
<svg version="1.1" id="레이어_1" xmlns="http://www.w3.org/2000/svg" xmlns:xlink="http://www.w3.org/1999/xlink" x="0px"
	 y="0px" viewBox="0 0 50 50" style="enable-background:new 0 0 50 50;" xml:space="preserve">
<style type="text/css">
	.st0{fill:#CEC4B3;}
</style>
<g>
	<path class="st0" d="M25.5,29c9.58,0,17.53,4.94,19.17,13.6c3.03-4.08,4.83-9.13,4.83-14.6C49.5,14.47,38.53,3.5,25,3.5
		S0.5,14.47,0.5,28c0,5.91,2.09,11.33,5.57,15.56C6.83,33.77,15.23,29,25.5,29z M25,9c4.97,0,9,4.03,9,9c0,4.97-4.03,9-9,9
		s-9-4.03-9-9C16,13.03,20.03,9,25,9z"/>
</g>
</svg>
