<svg width="50" height="50" viewBox="0 0 50 50" fill="none" xmlns="http://www.w3.org/2000/svg">
<circle cx="25" cy="25" r="25" fill="#FFD358"/>
<path d="M35.5625 17.5862H25.8125L22.5625 14H14.4375C13.0913 14 12 15.2042 12 16.6897V32.8276C12 34.3131 13.0913 35.5172 14.4375 35.5172H35.5625C36.9087 35.5172 38 34.3131 38 32.8276V20.2759C38 18.7904 36.9087 17.5862 35.5625 17.5862ZM30.6875 27C30.6875 27.4953 30.3239 27.8966 29.875 27.8966H26.2188V31.931C26.2188 32.4264 25.8552 32.8276 25.4062 32.8276H24.5938C24.1448 32.8276 23.7812 32.4264 23.7812 31.931V27.8966H20.125C19.6761 27.8966 19.3125 27.4953 19.3125 27V26.1034C19.3125 25.6081 19.6761 25.2069 20.125 25.2069H23.7812V21.1724C23.7812 20.6771 24.1448 20.2759 24.5938 20.2759H25.4062C25.8552 20.2759 26.2188 20.6771 26.2188 21.1724V25.2069H29.875C30.3239 25.2069 30.6875 25.6081 30.6875 26.1034V27Z" fill="white"/>
</svg>
