<svg width="50" height="50" viewBox="0 0 50 50" fill="none" xmlns="http://www.w3.org/2000/svg">
<path d="M50 25C50 38.8072 38.8072 50 25 50C11.1928 50 0 38.8072 0 25C0 11.1928 11.1928 0 25 0C38.8072 0 50 11.1928 50 25ZM22.1083 38.2373L40.6567 19.6889C41.2865 19.0591 41.2865 18.0378 40.6567 17.408L38.3757 15.127C37.7459 14.4971 36.7246 14.4971 36.0947 15.127L20.9677 30.2538L13.9053 23.1914C13.2755 22.5616 12.2542 22.5616 11.6243 23.1914L9.34335 25.4724C8.71351 26.1022 8.71351 27.1235 9.34335 27.7533L19.8272 38.2372C20.4572 38.8671 21.4783 38.8671 22.1083 38.2373Z" fill="#FFD358"/>
</svg>
