<?xml version="1.0" encoding="utf-8"?>
<!-- Generator: Adobe Illustrator 23.0.1, SVG Export Plug-In . SVG Version: 6.00 Build 0)  -->
<svg version="1.1" id="레이어_1" xmlns="http://www.w3.org/2000/svg" xmlns:xlink="http://www.w3.org/1999/xlink" x="0px"
	 y="0px" viewBox="0 0 431 333" style="enable-background:new 0 0 431 333;" xml:space="preserve">
<style type="text/css">
	.st0{fill:#FFFFFF;}
	.st1{fill:#CEC4B3;
;}
	.st2{fill:none;stroke:#CEC4B3;stroke-width:4;stroke-miterlimit:10;}
</style>
<g>
	<path class="st0" d="M52.6,266.9c-6.8,0-12.3-5.5-12.3-12.3V55.8c0-6.8,5.5-12.3,12.3-12.3h307.4c6.8,0,12.3,5.5,12.3,12.3v198.8
		c0,6.8-5.5,12.3-12.3,12.3H52.6z"/>
	<path class="st1" d="M360.1,44.9c6,0,10.9,4.9,10.9,10.9v198.8c0,6-4.9,10.9-10.9,10.9H52.6c-6,0-10.9-4.9-10.9-10.9V55.8
		c0-6,4.9-10.9,10.9-10.9H360.1 M360.1,42H52.6c-7.6,0-13.8,6.2-13.8,13.8v198.8c0,7.6,6.2,13.8,13.8,13.8h307.4
		c7.6,0,13.8-6.2,13.8-13.8V55.8C373.8,48.2,367.7,42,360.1,42L360.1,42z"/>
</g>
<circle class="st2" cx="121.4" cy="105.2" r="23.4"/>
<path class="st2" d="M81.2,228.8c34.8-34.8,53.5-53.5,88.3-88.3c2.2-2.2,5.8-2.2,8.1,0l95.1,95.1"/>
<path class="st2" d="M229.6,178.9l35.1-35.1c2.3-2.3,5.9-2.3,8.2,0l65.2,65.2"/>
</svg>
