<?xml version="1.0" encoding="utf-8"?>
<!-- Generator: Adobe Illustrator 23.0.1, SVG Export Plug-In . SVG Version: 6.00 Build 0)  -->
<svg version="1.1" id="레이어_1" xmlns="http://www.w3.org/2000/svg" xmlns:xlink="http://www.w3.org/1999/xlink" x="0px"
	 y="0px" viewBox="0 0 835 288" style="enable-background:new 0 0 835 288;" xml:space="preserve">
<style type="text/css">
	.st0{fill:#FFFFFF;}
	.st1{fill:#CEC4B3;}
	.st2{fill:none;stroke:#CEC4B3;stroke-width:4;stroke-miterlimit:10;}
</style>
<g>
	<path class="st0" d="M263.8,255.7c-6.8,0-12.3-5.5-12.3-12.3V44.6c0-6.8,5.5-12.3,12.3-12.3h307.4c6.8,0,12.3,5.5,12.3,12.3v198.8
		c0,6.8-5.5,12.3-12.3,12.3H263.8z"/>
	<path class="st1" d="M571.3,33.7c6,0,10.9,4.9,10.9,10.9v198.8c0,6-4.9,10.9-10.9,10.9H263.8c-6,0-10.9-4.9-10.9-10.9V44.6
		c0-6,4.9-10.9,10.9-10.9H571.3 M571.3,30.8H263.8c-7.6,0-13.8,6.2-13.8,13.8v198.8c0,7.6,6.2,13.8,13.8,13.8h307.4
		c7.6,0,13.8-6.2,13.8-13.8V44.6C585,37,578.9,30.8,571.3,30.8L571.3,30.8z"/>
</g>
<circle class="st2" cx="332.6" cy="94" r="23.4"/>
<path class="st2" d="M292.4,217.6c34.8-34.8,53.5-53.5,88.3-88.3c2.2-2.2,5.8-2.2,8.1,0l95.1,95.1"/>
<path class="st2" d="M440.8,167.7l35.1-35.1c2.3-2.3,5.9-2.3,8.2,0l65.2,65.2"/>
</svg>
